<svg width="281" height="206" viewBox="0 0 281 206" fill="none" xmlns="http://www.w3.org/2000/svg">
    <circle cx="213" cy="138" r="68" fill="#E6F7EF"/>
    <path d="M208.081 147.195C208.111 139.657 210.14 137.356 213.772 135.086C216.376 133.391 218.404 131.514 218.374 128.729C218.404 125.701 216.043 123.733 213.106 123.703C210.291 123.733 207.657 125.61 207.536 129.152H198.938C199.09 120.646 205.417 116.559 213.167 116.559C221.613 116.559 227.577 120.948 227.577 128.426C227.577 133.421 225.004 136.569 221.038 138.961C217.617 140.989 216.104 142.957 216.073 147.195V147.861H208.081V147.195ZM207.173 156.459C207.112 153.674 209.413 151.403 212.259 151.434C214.953 151.403 217.284 153.674 217.284 156.459C217.284 159.274 214.953 161.545 212.259 161.545C209.413 161.545 207.112 159.274 207.173 156.459Z" fill="#1CC976"/>
    <circle cx="87.5" cy="87.5" r="87.5" fill="#1CC976"/>
    <path d="M82.5811 96.1953C82.6113 88.6572 84.6396 86.3564 88.2725 84.0859C90.876 82.3906 92.9043 80.5137 92.874 77.7285C92.9043 74.7012 90.543 72.7334 87.6064 72.7031C84.791 72.7334 82.1572 74.6104 82.0361 78.1523H73.4385C73.5898 69.6455 79.917 65.5586 87.667 65.5586C96.1133 65.5586 102.077 69.9482 102.077 77.4258C102.077 82.4209 99.5039 85.5693 95.5381 87.9609C92.1172 89.9893 90.6035 91.957 90.5732 96.1953V96.8613H82.5811V96.1953ZM81.6729 105.459C81.6123 102.674 83.9131 100.403 86.7588 100.434C89.4531 100.403 91.7842 102.674 91.7842 105.459C91.7842 108.274 89.4531 110.545 86.7588 110.545C83.9131 110.545 81.6123 108.274 81.6729 105.459Z" fill="white"/>
</svg>
